Coordinates
version=1
nRows=24
nColumns=22
inDegrees=yes

Units are S.I. units (second, meters, Newtons, ...)
If the header above contains a line with 'inDegrees', this indicates whether rotational values are in degrees (yes) or radians (no).

endheader
time	pelvis_tilt	pelvis_list	pelvis_rotation	pelvis_tx	pelvis_ty	pelvis_tz	hip_flexion_r	hip_adduction_r	hip_rotation_r	knee_angle_r	ankle_angle_r	subtalar_angle_r	hip_flexion_l	hip_adduction_l	hip_rotation_l	knee_angle_l	ankle_angle_l	subtalar_angle_l	lumbar_extension	lumbar_bending	lumbar_rotation
      0.92000000	     -1.40055276	      1.09916472	    -32.10746223	     -0.95682411	      0.89675940	     -0.45970495	     -2.01487463	     -0.81261127	     -9.28127615	    -10.39484637	     22.27834117	     -4.96032163	      0.13475900	     -1.00219468	    -10.42673629	    -16.22329996	     21.39558641	     -3.83993542	     -5.68527018	     -2.66870751	      4.53201567
      0.93000000	     -1.55141398	      1.21972423	    -31.95563494	     -0.95530459	      0.89631562	     -0.45982446	     -1.92689701	     -0.89184154	     -9.48929819	    -10.38136263	     22.38335103	     -4.96283123	      0.27053439	     -0.92666888	    -10.28823864	    -16.22194300	     21.46557600	     -3.97298993	     -5.67577801	     -2.70939841	      4.53860793
      0.94000000	     -1.70165523	      1.34959659	    -31.79656496	     -0.95363645	      0.89585459	     -0.45994377	     -1.85759515	     -0.98120582	     -9.69640746	    -10.34459179	     22.49510166	     -4.98821860	      0.38934770	     -0.83541854	    -10.16342833	    -16.19294765	     21.56869038	     -4.06824747	     -5.65498300	     -2.75197423	      4.53472415
      0.95000000	     -1.88463119	      1.48073319	    -31.61103870	     -0.95189977	      0.89534526	     -0.46012764	     -1.75544245	     -1.05641107	     -9.92747585	    -10.32245796	     22.60540107	     -5.04422126	      0.56268271	     -0.75723423	     -9.97590695	    -16.20956617	     21.63763164	     -4.22223257	     -5.61478165	     -2.77197220	      4.55077918
      0.96000000	     -2.07290530	      1.61772667	    -31.42697592	     -0.95003351	      0.89481153	     -0.46028518	     -1.66636982	     -1.13396676	    -10.14329366	    -10.27657209	     22.72113047	     -5.12224054	      0.72077015	     -0.67223486	     -9.80835012	    -16.19780132	     21.73143908	     -4.36804824	     -5.56176171	     -2.79327228	      4.56813576
      0.97000000	     -2.24351997	      1.75037532	    -31.23224180	     -0.94807696	      0.89428232	     -0.46047272	     -1.59616720	     -1.22135277	    -10.35253071	    -10.24431764	     22.85307272	     -5.19699687	      0.85792143	     -0.57387402	     -9.60186143	    -16.19134876	     21.83980500	     -4.45538225	     -5.54203063	     -2.82020073	      4.60147051
      0.98000000	     -2.43223053	      1.89109535	    -31.02035762	     -0.94601535	      0.89370848	     -0.46067651	     -1.51026215	     -1.30745673	    -10.56849197	    -10.21796044	     22.99252039	     -5.28924757	      1.00845622	     -0.47356175	     -9.38137081	    -16.17823886	     21.94319385	     -4.56233842	     -5.50467909	     -2.84523532	      4.62842830
      0.99000000	     -2.60842155	      2.03082694	    -30.80265521	     -0.94385885	      0.89313027	     -0.46090980	     -1.42960084	     -1.40448127	    -10.76642399	    -10.21583041	     23.14617941	     -5.37881716	      1.13292770	     -0.35942634	     -9.14729155	    -16.15029361	     22.05590183	     -4.64920917	     -5.48959867	     -2.87310483	      4.65691019
      1.00000000	     -2.76874672	      2.16608797	    -30.59185711	     -0.94160227	      0.89255469	     -0.46112525	     -1.36665984	     -1.50653391	    -10.91900875	    -10.22313312	     23.30989519	     -5.44168305	      1.20272021	     -0.23374975	     -8.92397546	    -16.06818668	     22.19846240	     -4.68367184	     -5.49692715	     -2.90854259	      4.69967364
      1.01000000	     -2.94849798	      2.31912066	    -30.32018807	     -0.93928221	      0.89192022	     -0.46147469	     -1.24552804	     -1.62399641	    -11.14844716	    -10.30462170	     23.49340592	     -5.56960178	      1.33606366	     -0.09938233	     -8.64150199	    -16.04564112	     22.26687524	     -4.78709623	     -5.49704398	     -2.94740213	      4.69791589
      1.02000000	     -3.09619218	      2.45502814	    -30.08924619	     -0.93686531	      0.89131062	     -0.46175623	     -1.15689784	     -1.74245407	    -11.27037519	    -10.40445896	     23.68293826	     -5.64565450	      1.36188499	      0.04493464	     -8.40004064	    -15.91990297	     22.42473371	     -4.80473117	     -5.53859098	     -2.98944740	      4.74247129
      1.03000000	     -3.25217401	      2.61954761	    -29.79639360	     -0.93440885	      0.89064907	     -0.46216537	     -1.01748258	     -1.89072711	    -11.46932110	    -10.56616152	     23.90984777	     -5.79803490	      1.44758748	      0.20965349	     -8.11135988	    -15.85213070	     22.48432003	     -4.86540898	     -5.58407831	     -3.05935643	      4.73807052
      1.04000000	     -3.39162010	      2.77400665	    -29.52066736	     -0.93189348	      0.88998786	     -0.46257364	     -0.86342282	     -2.04308857	    -11.58775415	    -10.79861471	     24.14136487	     -5.95865738	      1.48014553	      0.37880345	     -7.83280969	    -15.73751621	     22.58717008	     -4.89232401	     -5.66213851	     -3.12896987	      4.76193694
      1.05000000	     -3.50884568	      2.93455653	    -29.24242328	     -0.92933350	      0.88932388	     -0.46300374	     -0.68860482	     -2.21861937	    -11.66312481	    -11.10713721	     24.38683984	     -6.11007150	      1.48139824	      0.56411149	     -7.56965607	    -15.60396475	     22.68715252	     -4.87855764	     -5.77795528	     -3.22259289	      4.78066250
      1.06000000	     -3.61967326	      3.10810196	    -28.96014018	     -0.92674453	      0.88863767	     -0.46347373	     -0.45679807	     -2.42043870	    -11.69688510	    -11.52381274	     24.64988610	     -6.28394097	      1.47313731	      0.76559369	     -7.30757928	    -15.45455189	     22.76936131	     -4.84290164	     -5.91592987	     -3.33786521	      4.78562674
      1.07000000	     -3.72001820	      3.28914773	    -28.68354712	     -0.92413766	      0.88794422	     -0.46395662	     -0.16555955	     -2.64489207	    -11.66545373	    -12.06421678	     24.91281074	     -6.46109929	      1.44718757	      0.97831851	     -7.06612357	    -15.28954058	     22.84996983	     -4.78666842	     -6.08190872	     -3.47522275	      4.79382153
      1.08000000	     -3.81824583	      3.48864560	    -28.41718376	     -0.92153722	      0.88723360	     -0.46445387	      0.21768904	     -2.90224526	    -11.56180430	    -12.75958558	     25.18074707	     -6.65406936	      1.41659114	      1.20933790	     -6.84806311	    -15.10798368	     22.91331339	     -4.71654992	     -6.26748423	     -3.64357278	      4.79724672
      1.09000000	     -3.95441445	      3.71076329	    -28.17210054	     -0.91901266	      0.88646614	     -0.46494805	      0.76257233	     -3.17559892	    -11.34280509	    -13.65777576	     25.42872176	     -6.96047465	      1.44581473	      1.43799514	     -6.66245154	    -14.95289629	     22.92942015	     -4.63897743	     -6.43372546	     -3.82926343	      4.83148250
      1.10000000	     -4.06722090	      3.94865727	    -27.96595665	     -0.91647690	      0.88572290	     -0.46537910	      1.39465939	     -3.48989656	    -11.00975569	    -14.74355284	     25.67332298	     -7.18838653	      1.42234712	      1.69578688	     -6.53814991	    -14.74184274	     22.96467959	     -4.56173166	     -6.63651930	     -4.05424586	      4.84536487
      1.11000000	     -4.25996859	      4.21460878	    -27.80678201	     -0.91403575	      0.88487870	     -0.46572037	      2.26312974	     -3.79772641	    -10.51989551	    -16.08537868	     25.83945428	     -7.55959818	      1.48535903	      1.93373021	     -6.49092410	    -14.53106358	     23.02592554	     -4.48751767	     -6.76311539	     -4.28256254	      4.88196790
      1.12000000	     -4.42097071	      4.49621488	    -27.70711292	     -0.91166227	      0.88408850	     -0.46594942	      3.25608251	     -4.13973911	     -9.88275885	    -17.68417865	     26.02777092	     -7.80341275	      1.49823167	      2.20538874	     -6.47580094	    -14.27953934	     22.99909029	     -4.42770612	     -6.94481373	     -4.56113793	      4.93787814
      1.13000000	     -4.71264860	      4.81001483	    -27.66971143	     -0.90944520	      0.88313089	     -0.46602378	      4.57703065	     -4.43019122	     -9.05021631	    -19.59692074	     26.07390002	     -8.27259204	      1.66517330	      2.42771673	     -6.57353098	    -14.05568538	     23.05620351	     -4.37106206	     -6.98767275	     -4.82119899	      5.01727498
      1.14000000	     -5.02189149	      5.14039994	    -27.69762308	     -0.90736923	      0.88215106	     -0.46592767	      6.10725033	     -4.69156959	     -8.01556119	    -21.81248481	     26.12889972	     -8.85073879	      1.84280764	      2.65262109	     -6.69478942	    -13.80905160	     23.10627470	     -4.30135392	     -7.03064927	     -5.10639273	      5.10747252
      1.15000000	     -5.38171108	      5.49180991	    -27.80515315	     -0.90543282	      0.88110105	     -0.46561417	      7.90355647	     -4.89522149	     -6.81437948	    -24.36308197	     26.06079105	     -9.45566107	      2.07357698	      2.85753436	     -6.91898081	    -13.55751981	     23.12195895	     -4.22121560	     -7.02223294	     -5.40427608	      5.23198627
